<svg width="159" height="40" viewBox="0 0 159 40" fill="none" xmlns="http://www.w3.org/2000/svg">
<rect y="0.565216" width="159" height="39" rx="19.5" fill="#2972F3"/>
<path d="M35.1607 29.6252C36.9457 29.6252 38.4907 28.9952 39.7357 27.7352L38.7907 26.4002C37.7707 27.4052 36.5107 27.8852 35.1607 27.8852C33.2407 27.8852 32.0557 27.0752 32.0557 25.5902V25.3352C32.0557 23.7752 33.4507 22.8302 36.4957 22.2452L38.4757 21.8552L38.1907 20.3102L36.9907 20.5202C36.3907 20.6252 35.8657 20.6852 35.4007 20.6852C33.9307 20.6852 33.0157 20.1602 33.0157 19.0052C33.0157 18.0452 33.6457 17.4452 34.7557 17.4452C35.5507 17.4452 36.1207 17.7452 36.6007 18.4052L37.7107 17.2952C37.1257 16.3502 36.1807 15.7352 34.9207 15.7352C33.0757 15.7352 31.7707 17.1902 31.7707 19.0052C31.7707 20.1452 32.4007 21.1502 33.5707 21.8702V21.9452C31.6957 22.8002 30.7057 24.1502 30.7057 25.7402C30.7057 28.2302 32.4307 29.6252 35.1607 29.6252ZM39.8428 28.6652H40.7728C43.4428 28.6652 45.0478 27.3602 45.5428 25.0652H46.0528L46.4128 24.7052V23.3702H45.7078C45.6778 20.6852 44.6128 19.0952 42.8728 19.0952C41.2078 19.0952 39.9928 20.6102 39.9928 22.5302C39.9928 24.1352 40.9378 25.0652 42.5428 25.0652H44.3428C43.9678 26.2502 42.7978 26.9702 40.7128 26.9702H39.8428V28.6652ZM41.2378 22.3202C41.2378 21.4202 41.8228 20.8052 42.7378 20.8052C43.7578 20.8052 44.4628 21.7052 44.4628 23.0852V23.3702H42.6028C41.7178 23.3702 41.2378 23.0552 41.2378 22.3202ZM46.0487 25.0652C47.3837 25.0652 47.9687 24.5852 48.2087 23.3552H48.2987C48.5537 24.5252 49.3487 25.0652 50.8187 25.0652L51.1937 24.7052V23.3702H50.6237C49.8287 23.3702 49.4537 22.9952 49.4537 22.1852V19.9052H48.1487V22.1852C48.1487 22.9802 47.7437 23.3702 46.9037 23.3702H46.4087L46.0487 23.7302V25.0652ZM48.6737 18.3752H48.8987C49.3487 18.3752 49.6637 18.1052 49.6637 17.5202C49.6637 16.9202 49.3487 16.6652 48.8987 16.6652H48.6737C48.2237 16.6652 47.9237 16.9202 47.9237 17.5202C47.9237 18.1052 48.2237 18.3752 48.6737 18.3752ZM50.8387 25.0652C52.1737 25.0652 52.7587 24.5852 52.9987 23.3552H53.0887C53.3437 24.5252 54.1387 25.0652 55.6087 25.0652L55.9837 24.7052V23.3702H55.4137C54.6187 23.3702 54.2437 22.9952 54.2437 22.1852V19.9052H52.9387V22.1852C52.9387 22.9802 52.5337 23.3702 51.6937 23.3702H51.1987L50.8387 23.7302V25.0652ZM54.4987 18.3752H54.7237C55.1737 18.3752 55.4887 18.1052 55.4887 17.5202C55.4887 16.9202 55.1737 16.6652 54.7237 16.6652H54.4987C54.0487 16.6652 53.7487 16.9202 53.7487 17.5202C53.7487 18.1052 54.0487 18.3752 54.4987 18.3752ZM52.3837 18.3752H52.6087C53.0587 18.3752 53.3737 18.1052 53.3737 17.5202C53.3737 16.9202 53.0587 16.6652 52.6087 16.6652H52.3837C51.9337 16.6652 51.6337 16.9202 51.6337 17.5202C51.6337 18.1052 51.9337 18.3752 52.3837 18.3752ZM61.7038 25.3352L62.8288 23.6852V23.1002C62.8288 20.6252 61.9138 19.1402 60.2788 19.1402C58.9438 19.1402 58.2088 19.9652 57.7288 21.1952L57.3088 22.2752C57.0088 23.0702 56.7538 23.3702 55.9888 23.3702L55.6288 23.7302V25.0652C56.6188 25.0652 57.2338 24.8252 57.6838 24.2102L61.7038 25.3352ZM58.6288 21.9902C58.8988 21.2702 59.3038 20.8352 60.0088 20.8352C60.9688 20.8352 61.5388 21.6902 61.5388 23.1002V23.5202L58.3888 22.6352L58.6288 21.9902ZM71.6251 28.6652C74.1901 28.6652 75.5551 27.5252 75.8551 25.0652H77.3101L77.6701 24.7052V23.3702H75.9151V13.9652H74.5051V23.9252C74.5051 26.1002 73.8901 26.8502 72.1501 26.8502H71.1151C69.6451 26.8502 68.7451 26.0102 68.7451 24.5552C68.7451 23.8352 69.0151 22.8752 69.3901 22.0352L68.2501 21.6902C67.8151 22.7252 67.5451 23.8652 67.5451 24.7652C67.5451 27.2252 69.0151 28.6652 71.6251 28.6652ZM77.3085 25.0652C78.6435 25.0652 79.2285 24.5852 79.4685 23.3552H79.5585C79.8135 24.5252 80.6085 25.0652 82.0785 25.0652L82.4535 24.7052V23.3702H81.8835C81.0885 23.3702 80.7135 22.9952 80.7135 22.1852V19.9052H79.4085V22.1852C79.4085 22.9802 79.0035 23.3702 78.1635 23.3702H77.6685L77.3085 23.7302V25.0652ZM80.9985 28.1852H81.2235C81.6735 28.1852 81.9885 27.9152 81.9885 27.3302C81.9885 26.7302 81.6735 26.4752 81.2235 26.4752H80.9985C80.5485 26.4752 80.2485 26.7302 80.2485 27.3302C80.2485 27.9152 80.5485 28.1852 80.9985 28.1852ZM78.8835 28.1852H79.1085C79.5585 28.1852 79.8735 27.9152 79.8735 27.3302C79.8735 26.7302 79.5585 26.4752 79.1085 26.4752H78.8835C78.4335 26.4752 78.1335 26.7302 78.1335 27.3302C78.1335 27.9152 78.4335 28.1852 78.8835 28.1852ZM82.0985 25.0652H83.6435C84.5435 25.0652 85.4285 24.8402 86.1935 24.3302C86.9585 24.8402 87.9185 25.0652 88.8335 25.0652H89.4635L89.8235 24.7052V23.3702H87.5885L87.5735 23.3402C88.7585 22.3952 89.2085 21.9452 89.2085 20.8802C89.2085 19.3802 88.1585 18.5852 86.1185 18.5852C85.1135 18.5852 83.9885 18.8552 83.0735 19.3052V21.0452L84.9035 23.3102L84.8885 23.3702H82.4585L82.0985 23.7302V25.0652ZM84.2585 20.5502C84.8585 20.3852 85.5035 20.2952 86.1035 20.2952C87.3785 20.2952 87.9785 20.5802 87.9785 21.1952C87.9785 21.7202 87.5735 21.9902 86.7935 22.6502L86.3135 23.0552L84.2585 20.6102V20.5502ZM85.9985 17.0552H86.2235C86.6735 17.0552 86.9885 16.7852 86.9885 16.2002C86.9885 15.6002 86.6735 15.3452 86.2235 15.3452H85.9985C85.5485 15.3452 85.2485 15.6002 85.2485 16.2002C85.2485 16.7852 85.5485 17.0552 85.9985 17.0552ZM89.4667 25.0652C90.6517 25.0652 91.3417 24.9152 91.9417 24.3002L92.3467 24.5402C93.1717 25.0352 93.7417 25.2452 94.3267 25.2452C95.2417 25.2452 95.8267 24.6452 95.9917 23.4902H96.0817C96.2767 24.6602 96.8617 25.2452 97.8967 25.2452C98.8417 25.2452 99.3817 24.7352 99.5017 23.4902H99.5767C99.8467 24.5702 100.597 25.0652 101.992 25.0652L102.367 24.7052V23.3702H101.797C101.002 23.3702 100.627 22.9952 100.627 22.1852V20.5052H99.3217V22.1852C99.3217 23.1602 99.0367 23.5352 98.4067 23.5352H98.1367C97.4617 23.5352 97.2217 23.1602 97.2217 22.1852V21.1052H95.9167V22.1852C95.9167 23.1902 95.5117 23.5652 94.6117 23.5652C94.0267 23.5652 93.5017 23.4152 92.9017 23.0702L92.7967 23.0102L93.4717 21.6752L92.3467 21.1052L91.7317 22.3502C91.3417 23.1452 90.9817 23.3702 90.1267 23.3702H89.8267L89.4667 23.7302V25.0652ZM97.5367 19.5752H97.7467C98.1967 19.5752 98.5117 19.3052 98.5117 18.7202C98.5117 18.1202 98.1967 17.8652 97.7467 17.8652H97.5367C97.0867 17.8652 96.7717 18.1202 96.7717 18.7202C96.7717 19.3052 97.0867 19.5752 97.5367 19.5752ZM95.4067 19.5752H95.6317C96.0817 19.5752 96.3967 19.3052 96.3967 18.7202C96.3967 18.1202 96.0817 17.8652 95.6317 17.8652H95.4067C94.9567 17.8652 94.6567 18.1202 94.6567 18.7202C94.6567 19.3052 94.9567 19.5752 95.4067 19.5752ZM96.4717 17.5952H96.6967C97.1317 17.5952 97.4317 17.3402 97.4317 16.7552C97.4317 16.1852 97.1317 15.9302 96.6967 15.9302H96.4717C96.0367 15.9302 95.7217 16.1852 95.7217 16.7552C95.7217 17.3402 96.0367 17.5952 96.4717 17.5952ZM102.006 25.0652H102.681C104.796 25.0652 105.801 24.1652 105.801 22.2902C105.801 21.8402 105.741 21.1952 105.621 20.4002L105.426 19.0952L104.121 19.3052L104.361 20.6102C104.496 21.4652 104.541 21.9452 104.541 22.2902C104.541 23.1152 104.046 23.3702 102.681 23.3702H102.366L102.006 23.7302V25.0652ZM105.501 17.5652H105.726C106.176 17.5652 106.491 17.2952 106.491 16.7102C106.491 16.1102 106.176 15.8552 105.726 15.8552H105.501C105.051 15.8552 104.751 16.1102 104.751 16.7102C104.751 17.2952 105.051 17.5652 105.501 17.5652ZM103.386 17.5652H103.611C104.061 17.5652 104.376 17.2952 104.376 16.7102C104.376 16.1102 104.061 15.8552 103.611 15.8552H103.386C102.936 15.8552 102.636 16.1102 102.636 16.7102C102.636 17.2952 102.936 17.5652 103.386 17.5652Z" fill="white"/>
<g clip-path="url(#clip0_1_256)">
<path fill-rule="evenodd" clip-rule="evenodd" d="M127.551 16.2414L128.081 15.7111L127.551 15.1807L127.551 15.1804L124.384 12.0141C124.092 11.7212 123.617 11.7212 123.324 12.0141C123.031 12.307 123.031 12.7818 123.324 13.0747L125.21 14.9611H123.444L123.326 14.961C122.436 14.9607 121.821 14.9604 121.257 15.143C120.759 15.3041 120.3 15.5675 119.91 15.9164C119.468 16.3121 119.158 16.8433 118.71 17.6118L118.71 17.6118L118.651 17.7146L115.887 22.4517C115.356 23.363 115.167 23.67 114.923 23.8878C114.689 24.0972 114.414 24.2552 114.115 24.3519C113.804 24.4524 113.444 24.4611 112.389 24.4611H111.979C111.565 24.4611 111.229 24.7968 111.229 25.2111C111.229 25.6253 111.565 25.9611 111.979 25.9611H112.389L112.508 25.9611C113.397 25.9614 114.012 25.9617 114.577 25.7791C115.075 25.618 115.533 25.3546 115.923 25.0057C116.365 24.6101 116.675 24.0788 117.123 23.3103L117.183 23.2075L119.946 18.4704C120.478 17.5591 120.667 17.2521 120.91 17.0343C121.144 16.8249 121.419 16.6669 121.718 16.5702C122.029 16.4697 122.39 16.4611 123.444 16.4611H125.21L123.324 18.3474C123.031 18.6403 123.031 19.1152 123.324 19.4081C123.617 19.7009 124.092 19.7009 124.384 19.4081L127.551 16.2417L127.551 16.2414ZM115.915 18.5181L115.537 17.8703L115.191 17.2766C114.896 16.7716 114.356 16.4612 113.771 16.4612H111.979C111.565 16.4612 111.229 16.1254 111.229 15.7112C111.229 15.2969 111.565 14.9612 111.979 14.9612H113.771C114.889 14.9612 115.923 15.555 116.486 16.5207L116.833 17.1145L117.211 17.7623L115.915 18.5181ZM128.082 25.2111L127.552 24.6813L127.551 24.6802L124.385 21.5141C124.092 21.2212 123.617 21.2212 123.324 21.5141C123.031 21.807 123.031 22.2818 123.324 22.5747L125.21 24.4611H122.062C121.478 24.4611 120.937 24.1506 120.643 23.6456L120.296 23.0519L119.918 22.4041L118.623 23.1599L119.001 23.8077L119.347 24.4015C119.91 25.3672 120.944 25.9611 122.062 25.9611H125.21L123.324 27.8474C123.031 28.1403 123.031 28.6152 123.324 28.9081C123.617 29.2009 124.092 29.2009 124.385 28.9081L127.551 25.7414L128.082 25.2111Z" fill="white"/>
</g>
<defs>
<clipPath id="clip0_1_256">
<rect width="19" height="19" fill="white" transform="translate(110 10.5652)"/>
</clipPath>
</defs>
</svg>
