<svg width="33" height="33" viewBox="0 0 33 33" fill="none" xmlns="http://www.w3.org/2000/svg">
<path d="M16.5 28.5652C18.1392 28.5652 19.6824 28.2515 21.1294 27.624C22.5765 26.9966 23.8529 26.1299 24.9588 25.024C26.0647 23.9181 26.9314 22.6417 27.5588 21.1946C28.1863 19.7476 28.5 18.2045 28.5 16.5652C28.5 14.926 28.1863 13.3828 27.5588 11.9358C26.9314 10.4887 26.0647 9.21227 24.9588 8.10638C23.8529 7.00051 22.5745 6.13384 21.1235 5.50639C19.6725 4.87894 18.1274 4.56522 16.4882 4.56522C14.849 4.56522 13.3059 4.87894 11.8588 5.50639C10.4118 6.13384 9.13725 7.00051 8.03529 8.10638C6.93333 9.21227 6.06863 10.4887 5.44118 11.9358C4.81373 13.3828 4.5 14.926 4.5 16.5652C4.5 18.2045 4.81373 19.7476 5.44118 21.1946C6.06863 22.6417 6.93529 23.9181 8.04117 25.024C9.14706 26.1299 10.4235 26.9966 11.8706 27.624C13.3176 28.2515 14.8608 28.5652 16.5 28.5652Z" fill="#2972F3"/>
<path d="M14.2645 21.3072C13.9821 21.4797 13.7096 21.5091 13.4469 21.3954C13.1841 21.2817 13.0527 21.0797 13.0527 20.7895V12.3543C13.0527 12.0641 13.19 11.868 13.4645 11.766C13.739 11.6641 14.0057 11.6876 14.2645 11.8366L21.1822 15.9307C21.4253 16.0797 21.5488 16.2954 21.5528 16.5778C21.5567 16.8602 21.4332 17.0798 21.1822 17.2366L14.2645 21.3072Z" fill="white"/>
</svg>
