<svg width="25" height="25" viewBox="0 0 25 25" fill="none" xmlns="http://www.w3.org/2000/svg">
<path d="M12.5 13.5652C13.0523 13.5652 13.5 13.1175 13.5 12.5652C13.5 12.0129 13.0523 11.5652 12.5 11.5652C11.9477 11.5652 11.5 12.0129 11.5 12.5652C11.5 13.1175 11.9477 13.5652 12.5 13.5652Z" stroke="#141133" stroke-width="2" stroke-linecap="round" stroke-linejoin="round"/>
<path d="M12.5 6.56522C13.0523 6.56522 13.5 6.1175 13.5 5.56522C13.5 5.01293 13.0523 4.56522 12.5 4.56522C11.9477 4.56522 11.5 5.01293 11.5 5.56522C11.5 6.1175 11.9477 6.56522 12.5 6.56522Z" stroke="#141133" stroke-width="2" stroke-linecap="round" stroke-linejoin="round"/>
<path d="M12.5 20.5652C13.0523 20.5652 13.5 20.1175 13.5 19.5652C13.5 19.0129 13.0523 18.5652 12.5 18.5652C11.9477 18.5652 11.5 19.0129 11.5 19.5652C11.5 20.1175 11.9477 20.5652 12.5 20.5652Z" stroke="#141133" stroke-width="2" stroke-linecap="round" stroke-linejoin="round"/>
</svg>
